<svg id="svg" version="1.1" xmlns="http://www.w3.org/2000/svg" xmlns:xlink="http://www.w3.org/1999/xlink" width="400" height="400" viewBox="0, 0, 400,400"><g id="svgg"><path id="path0" d="M196.800 28.139 C 195.370 28.867,192.850 30.141,191.200 30.969 C 187.368 32.892,185.933 33.634,183.118 35.145 C 181.863 35.819,180.513 36.544,180.118 36.754 C 179.723 36.965,178.140 37.763,176.600 38.527 C 175.060 39.291,169.210 42.272,163.600 45.152 C 157.990 48.031,151.015 51.605,148.100 53.094 C 145.184 54.582,141.224 56.628,139.300 57.639 C 137.375 58.651,134.630 60.051,133.200 60.752 C 131.770 61.453,130.207 62.245,129.726 62.513 C 129.245 62.781,125.825 64.545,122.126 66.433 C 113.892 70.635,92.774 81.556,90.240 82.922 C 89.602 83.266,88.930 83.784,88.746 84.074 C 88.562 84.363,88.409 108.933,88.406 138.673 L 88.400 192.746 89.700 193.673 C 90.414 194.183,92.386 195.246,94.080 196.035 C 95.775 196.824,97.395 197.661,97.681 197.896 C 97.966 198.130,99.730 199.061,101.600 199.965 C 107.798 202.961,128.577 213.640,128.790 213.938 C 128.906 214.100,130.170 214.740,131.600 215.361 C 133.030 215.983,134.650 216.779,135.200 217.132 C 135.750 217.484,138.180 218.781,140.600 220.013 C 143.020 221.246,145.360 222.449,145.800 222.688 C 146.240 222.926,148.760 224.203,151.400 225.524 C 154.040 226.846,157.730 228.751,159.600 229.757 C 161.470 230.764,163.450 231.770,164.000 231.994 C 164.550 232.217,165.360 232.613,165.800 232.873 C 166.240 233.133,170.470 235.317,175.200 237.727 C 187.515 244.002,197.097 248.922,198.118 249.494 C 199.286 250.148,200.770 250.119,202.000 249.418 C 203.246 248.708,211.707 244.329,213.600 243.415 C 214.370 243.044,215.630 242.388,216.400 241.958 C 217.170 241.528,219.780 240.177,222.200 238.956 C 224.620 237.735,227.050 236.482,227.600 236.171 C 228.150 235.860,229.500 235.180,230.600 234.660 C 238.938 230.713,245.200 227.176,245.200 226.414 C 245.200 226.116,240.102 223.033,236.569 221.196 C 235.266 220.518,232.580 219.092,230.600 218.028 C 226.021 215.567,221.446 213.118,219.415 212.041 C 217.125 210.826,215.809 210.986,211.996 212.945 C 210.128 213.905,206.988 215.525,205.018 216.545 C 200.039 219.124,199.751 219.093,192.104 215.148 C 188.637 213.360,182.380 210.143,178.200 208.000 C 163.755 200.594,154.584 195.883,150.400 193.719 C 141.349 189.038,132.479 184.481,130.000 183.238 C 128.570 182.521,126.950 181.674,126.400 181.356 C 125.850 181.037,124.680 180.415,123.800 179.974 C 122.920 179.532,121.660 178.730,121.000 178.191 L 119.800 177.211 119.703 138.905 C 119.626 108.770,119.713 100.389,120.108 99.612 C 120.610 98.628,122.842 97.294,129.800 93.823 C 131.780 92.835,134.210 91.589,135.200 91.053 C 137.760 89.669,142.048 87.467,146.000 85.506 C 147.870 84.579,149.580 83.677,149.800 83.501 C 150.020 83.326,154.340 81.095,159.400 78.544 C 164.460 75.992,169.714 73.304,171.076 72.570 C 172.438 71.837,173.878 71.062,174.276 70.849 C 174.674 70.636,176.260 69.838,177.800 69.076 C 185.330 65.348,197.443 59.101,197.780 58.771 C 198.279 58.284,201.731 58.291,202.221 58.781 C 202.430 58.990,206.381 61.078,211.001 63.421 C 218.831 67.393,225.324 70.739,237.600 77.131 C 240.350 78.563,243.860 80.334,245.400 81.067 C 246.940 81.801,248.650 82.658,249.200 82.972 C 249.750 83.286,252.270 84.621,254.800 85.938 C 257.330 87.255,261.110 89.243,263.200 90.356 C 265.290 91.470,267.450 92.565,268.000 92.790 C 268.550 93.016,269.286 93.363,269.635 93.563 C 269.984 93.762,272.054 94.859,274.235 96.000 C 276.416 97.141,278.650 98.512,279.200 99.046 L 280.200 100.018 280.400 137.948 C 280.572 170.498,280.683 175.978,281.187 176.585 C 281.510 176.974,283.670 178.174,285.987 179.253 C 288.304 180.331,290.560 181.422,291.000 181.676 C 291.440 181.930,293.240 182.831,295.000 183.679 C 296.760 184.528,298.470 185.397,298.800 185.612 C 299.130 185.826,299.760 186.161,300.200 186.356 C 300.640 186.551,302.890 187.604,305.200 188.696 C 310.589 191.244,310.867 191.336,311.262 190.714 C 311.622 190.146,311.724 85.881,311.365 84.600 C 311.115 83.703,308.956 82.278,305.391 80.657 C 304.076 80.059,302.730 79.395,302.400 79.182 C 301.654 78.701,298.262 76.939,286.914 71.140 C 268.866 61.918,263.612 59.224,255.400 54.980 C 250.780 52.592,245.470 49.857,243.600 48.902 C 241.730 47.947,236.780 45.410,232.600 43.265 C 228.420 41.120,224.010 38.867,222.800 38.259 C 221.590 37.650,220.060 36.869,219.400 36.521 C 218.740 36.174,214.870 34.180,210.800 32.089 C 206.730 29.999,202.773 27.954,202.006 27.544 C 200.156 26.557,199.836 26.593,196.800 28.139 M198.331 153.636 C 196.623 154.291,183.061 161.239,182.400 161.798 C 182.070 162.077,181.350 162.435,180.800 162.594 C 180.250 162.753,179.365 163.158,178.833 163.494 C 177.980 164.034,164.726 170.835,158.800 173.774 C 157.590 174.374,156.330 175.004,156.000 175.174 C 154.396 175.998,155.085 177.116,158.275 178.867 C 164.009 182.014,164.586 182.322,167.200 183.626 C 168.630 184.340,170.250 185.233,170.800 185.612 C 171.350 185.990,173.330 187.109,175.200 188.098 C 177.070 189.087,179.482 190.370,180.560 190.948 C 183.490 192.521,184.096 192.321,196.556 185.660 C 199.270 184.209,200.827 184.087,202.800 185.170 C 203.570 185.593,206.270 186.996,208.800 188.287 C 211.330 189.578,213.760 190.838,214.200 191.085 C 214.640 191.333,216.170 192.120,217.600 192.835 C 219.030 193.549,223.440 195.803,227.400 197.842 C 231.360 199.882,237.930 203.246,242.000 205.318 C 246.070 207.390,251.380 210.126,253.800 211.398 C 259.207 214.241,271.906 220.772,276.094 222.864 C 281.085 225.358,280.583 220.926,280.710 263.620 C 280.797 292.815,280.712 301.004,280.310 302.221 C 279.703 304.059,278.111 305.280,273.000 307.829 C 271.020 308.816,267.060 310.874,264.200 312.402 C 261.340 313.930,258.550 315.365,258.000 315.590 C 257.450 315.816,256.695 316.176,256.321 316.390 C 255.948 316.605,251.808 318.744,247.121 321.143 C 242.435 323.543,235.360 327.176,231.400 329.217 C 227.440 331.257,220.600 334.732,216.200 336.939 C 211.800 339.145,208.107 341.084,207.993 341.248 C 207.528 341.918,201.425 344.484,200.217 344.518 C 198.843 344.557,197.116 343.756,185.200 337.549 C 181.350 335.544,174.453 331.990,169.873 329.652 C 165.293 327.313,158.363 323.773,154.473 321.784 C 150.583 319.796,146.230 317.577,144.800 316.853 C 143.370 316.129,141.930 315.383,141.600 315.196 C 141.270 315.008,138.750 313.724,136.000 312.342 C 133.250 310.960,130.910 309.710,130.800 309.565 C 130.690 309.420,129.378 308.731,127.884 308.035 C 124.727 306.564,121.219 304.386,120.383 303.379 C 119.885 302.779,119.771 297.145,119.600 264.572 C 119.490 243.614,119.310 226.387,119.200 226.289 C 118.908 226.030,112.677 222.933,105.800 219.627 C 102.500 218.040,99.530 216.575,99.200 216.370 C 98.870 216.166,98.220 215.832,97.756 215.630 C 97.291 215.428,95.401 214.547,93.556 213.673 C 89.210 211.614,88.913 211.529,88.633 212.258 C 88.045 213.792,88.388 318.205,88.984 319.056 C 89.501 319.793,91.745 321.075,94.800 322.379 C 95.350 322.613,97.870 323.894,100.400 325.225 C 102.930 326.556,109.500 329.954,115.000 332.778 C 125.054 337.938,135.341 343.234,137.200 344.206 C 137.750 344.494,139.190 345.222,140.400 345.823 C 141.610 346.425,144.490 347.904,146.800 349.111 C 149.110 350.317,154.690 353.194,159.200 355.503 C 163.710 357.812,170.550 361.325,174.400 363.310 C 178.250 365.294,182.840 367.614,184.600 368.464 C 186.360 369.314,188.070 370.189,188.400 370.408 C 188.730 370.627,190.350 371.461,192.000 372.261 C 193.650 373.062,195.270 373.930,195.600 374.190 C 195.930 374.450,197.142 375.042,198.293 375.506 L 200.387 376.350 207.693 372.632 C 211.712 370.588,218.060 367.336,221.800 365.407 C 225.540 363.477,231.750 360.282,235.600 358.306 C 239.450 356.330,246.470 352.726,251.200 350.296 C 255.930 347.866,260.340 345.620,261.000 345.305 C 261.660 344.989,263.010 344.292,264.000 343.755 C 264.990 343.217,267.420 341.969,269.400 340.980 C 271.380 339.991,276.240 337.493,280.200 335.430 C 290.106 330.268,295.800 327.345,304.052 323.184 C 307.930 321.229,311.222 319.319,311.368 318.939 C 311.514 318.560,311.625 293.938,311.617 264.225 L 311.601 210.200 310.746 209.600 C 309.354 208.623,298.925 203.215,274.600 190.854 C 271.960 189.513,269.620 188.277,269.400 188.108 C 269.180 187.938,267.650 187.176,266.000 186.414 C 264.350 185.651,262.730 184.825,262.400 184.578 C 262.070 184.331,258.740 182.597,255.000 180.726 C 251.260 178.854,245.860 176.103,243.000 174.612 C 235.441 170.672,221.596 163.567,220.200 162.912 C 219.540 162.602,218.640 162.148,218.200 161.903 C 217.760 161.658,214.430 159.932,210.800 158.067 C 207.170 156.201,203.711 154.423,203.112 154.114 C 201.621 153.346,199.613 153.145,198.331 153.636 " stroke="none" fill="#11100a" fill-rule="evenodd"></path><path id="path1" d="M172.800 0.400 C 172.800 0.643,171.009 0.800,168.226 0.800 C 163.412 0.800,161.600 1.180,161.600 2.190 C 161.600 2.691,160.959 2.800,158.000 2.800 C 154.690 2.800,154.400 2.863,154.400 3.584 C 154.400 4.295,154.071 4.380,150.900 4.484 C 147.616 4.593,147.392 4.655,147.272 5.500 C 147.151 6.351,146.964 6.400,143.799 6.400 C 140.805 6.400,140.427 6.484,140.200 7.200 C 139.984 7.881,139.595 8.000,137.581 8.000 C 135.391 8.000,135.197 8.074,134.964 9.000 C 134.732 9.927,134.539 10.000,132.319 10.000 C 130.262 10.000,129.896 10.112,129.716 10.800 C 129.547 11.447,129.170 11.600,127.753 11.600 C 126.267 11.600,126.000 11.722,126.000 12.400 C 126.000 13.092,125.733 13.200,124.033 13.200 C 121.551 13.200,120.800 13.489,120.800 14.443 C 120.800 15.062,120.502 15.200,119.163 15.200 C 117.876 15.200,117.481 15.367,117.321 15.979 C 117.168 16.565,116.707 16.788,115.459 16.879 C 114.088 16.979,113.778 17.156,113.672 17.900 C 113.564 18.659,113.298 18.800,111.972 18.800 C 110.667 18.800,110.400 18.936,110.400 19.600 C 110.400 20.281,110.133 20.400,108.600 20.400 C 107.084 20.400,106.800 20.523,106.800 21.177 C 106.800 21.805,106.474 21.978,105.100 22.077 C 103.687 22.179,103.378 22.352,103.272 23.100 C 103.162 23.879,102.905 24.000,101.372 24.000 C 99.867 24.000,99.600 24.120,99.600 24.800 C 99.600 25.466,99.333 25.600,98.008 25.600 C 96.643 25.600,96.379 25.743,96.164 26.600 C 96.007 27.226,95.630 27.600,95.157 27.600 C 94.667 27.600,94.400 27.882,94.400 28.400 C 94.400 29.081,94.133 29.200,92.600 29.200 C 91.067 29.200,90.800 29.319,90.800 30.000 C 90.800 30.468,90.533 30.800,90.158 30.800 C 89.804 30.800,89.161 31.250,88.729 31.800 C 88.210 32.460,87.544 32.800,86.771 32.800 C 85.867 32.800,85.600 32.982,85.600 33.600 C 85.600 34.133,85.333 34.400,84.800 34.400 C 84.213 34.400,84.000 34.667,84.000 35.400 C 84.000 36.319,83.853 36.400,82.200 36.400 C 80.667 36.400,80.400 36.519,80.400 37.200 C 80.400 37.745,80.133 38.000,79.563 38.000 C 79.062 38.000,78.641 38.321,78.516 38.800 C 78.400 39.243,77.970 39.600,77.553 39.600 C 77.016 39.600,76.800 39.887,76.800 40.600 C 76.800 41.504,76.642 41.600,75.163 41.600 C 73.862 41.600,73.482 41.764,73.316 42.400 C 73.200 42.843,72.770 43.200,72.353 43.200 C 71.816 43.200,71.600 43.487,71.600 44.200 C 71.600 45.000,71.400 45.200,70.600 45.200 C 69.867 45.200,69.600 45.413,69.600 46.000 C 69.600 46.533,69.333 46.800,68.800 46.800 C 68.276 46.800,68.000 47.067,68.000 47.572 C 68.000 48.068,67.678 48.390,67.100 48.472 C 66.522 48.554,66.154 48.922,66.072 49.500 C 65.981 50.142,65.675 50.400,65.005 50.400 C 63.668 50.400,62.800 50.800,62.800 51.416 C 62.800 51.707,62.449 52.057,62.020 52.194 C 61.592 52.330,61.130 52.792,60.994 53.220 C 60.857 53.649,60.398 54.000,59.973 54.000 C 59.467 54.000,59.200 54.276,59.200 54.800 C 59.200 55.324,58.933 55.600,58.427 55.600 C 58.002 55.600,57.543 55.951,57.406 56.380 C 57.270 56.808,56.808 57.270,56.380 57.406 C 55.951 57.543,55.600 58.002,55.600 58.427 C 55.600 58.933,55.324 59.200,54.800 59.200 C 54.276 59.200,54.000 59.467,54.000 59.973 C 54.000 60.398,53.649 60.857,53.220 60.994 C 52.792 61.130,52.330 61.592,52.194 62.020 C 52.057 62.449,51.707 62.800,51.416 62.800 C 50.800 62.800,50.400 63.668,50.400 65.005 C 50.400 65.675,50.142 65.981,49.500 66.072 C 48.922 66.154,48.554 66.522,48.472 67.100 C 48.390 67.678,48.068 68.000,47.572 68.000 C 47.067 68.000,46.800 68.276,46.800 68.800 C 46.800 69.333,46.533 69.600,46.000 69.600 C 45.413 69.600,45.200 69.867,45.200 70.600 C 45.200 71.400,45.000 71.600,44.200 71.600 C 43.487 71.600,43.200 71.816,43.200 72.353 C 43.200 72.770,42.843 73.200,42.400 73.316 C 41.764 73.482,41.600 73.862,41.600 75.163 C 41.600 76.642,41.504 76.800,40.600 76.800 C 39.887 76.800,39.600 77.016,39.600 77.553 C 39.600 77.970,39.243 78.400,38.800 78.516 C 38.321 78.641,38.000 79.062,38.000 79.563 C 38.000 80.133,37.745 80.400,37.200 80.400 C 36.519 80.400,36.400 80.667,36.400 82.200 C 36.400 83.853,36.319 84.000,35.400 84.000 C 34.667 84.000,34.400 84.213,34.400 84.800 C 34.400 85.333,34.133 85.600,33.600 85.600 C 32.982 85.600,32.800 85.867,32.800 86.771 C 32.800 87.544,32.460 88.210,31.800 88.729 C 31.250 89.161,30.800 89.804,30.800 90.158 C 30.800 90.533,30.468 90.800,30.000 90.800 C 29.319 90.800,29.200 91.067,29.200 92.600 C 29.200 94.133,29.081 94.400,28.400 94.400 C 27.882 94.400,27.600 94.667,27.600 95.157 C 27.600 95.630,27.226 96.007,26.600 96.164 C 25.743 96.379,25.600 96.643,25.600 98.008 C 25.600 99.333,25.466 99.600,24.800 99.600 C 24.120 99.600,24.000 99.867,24.000 101.372 C 24.000 102.905,23.879 103.162,23.100 103.272 C 22.352 103.378,22.179 103.687,22.077 105.100 C 21.978 106.474,21.805 106.800,21.177 106.800 C 20.523 106.800,20.400 107.084,20.400 108.600 C 20.400 110.133,20.281 110.400,19.600 110.400 C 18.936 110.400,18.800 110.667,18.800 111.972 C 18.800 113.298,18.659 113.564,17.900 113.672 C 17.156 113.778,16.979 114.088,16.879 115.459 C 16.788 116.707,16.565 117.168,15.979 117.321 C 15.367 117.481,15.200 117.876,15.200 119.163 C 15.200 120.502,15.062 120.800,14.443 120.800 C 13.489 120.800,13.200 121.551,13.200 124.033 C 13.200 125.733,13.092 126.000,12.400 126.000 C 11.722 126.000,11.600 126.267,11.600 127.753 C 11.600 129.170,11.447 129.547,10.800 129.716 C 10.112 129.896,10.000 130.262,10.000 132.319 C 10.000 134.539,9.927 134.732,9.000 134.964 C 8.074 135.197,8.000 135.391,8.000 137.581 C 8.000 139.595,7.881 139.984,7.200 140.200 C 6.484 140.427,6.400 140.805,6.400 143.799 C 6.400 146.964,6.351 147.151,5.500 147.272 C 4.655 147.392,4.593 147.616,4.484 150.900 C 4.380 154.071,4.295 154.400,3.584 154.400 C 2.863 154.400,2.800 154.690,2.800 158.000 C 2.800 160.959,2.691 161.600,2.190 161.600 C 1.180 161.600,0.800 163.412,0.800 168.226 C 0.800 171.009,0.643 172.800,0.400 172.800 C 0.137 172.800,0.000 182.200,0.000 200.200 C 0.000 218.200,0.137 227.600,0.400 227.600 C 0.641 227.600,0.800 229.250,0.800 231.750 C 0.800 236.842,1.066 238.303,2.048 238.615 C 2.707 238.824,2.800 239.277,2.800 242.264 C 2.800 245.316,2.883 245.696,3.585 245.880 C 4.270 246.059,4.384 246.496,4.485 249.343 C 4.592 252.375,4.662 252.609,5.500 252.728 C 6.353 252.849,6.400 253.034,6.400 256.265 C 6.400 259.312,6.483 259.697,7.182 259.879 C 7.833 260.050,7.984 260.495,8.082 262.542 C 8.188 264.744,8.294 265.013,9.100 265.128 C 9.927 265.245,10.000 265.465,10.000 267.828 C 10.000 270.133,10.083 270.400,10.800 270.400 C 11.481 270.400,11.600 270.667,11.600 272.200 C 11.600 273.719,11.722 274.000,12.381 274.000 C 13.059 274.000,13.177 274.328,13.281 276.500 C 13.388 278.745,13.492 279.013,14.300 279.128 C 15.079 279.238,15.200 279.495,15.200 281.028 C 15.200 282.533,15.320 282.800,16.000 282.800 C 16.681 282.800,16.800 283.067,16.800 284.600 C 16.800 286.253,16.881 286.400,17.800 286.400 C 18.719 286.400,18.800 286.547,18.800 288.200 C 18.800 289.733,18.919 290.000,19.600 290.000 C 20.267 290.000,20.400 290.267,20.400 291.600 C 20.400 292.933,20.533 293.200,21.200 293.200 C 21.881 293.200,22.000 293.467,22.000 295.000 C 22.000 296.653,22.081 296.800,23.000 296.800 C 23.919 296.800,24.000 296.947,24.000 298.600 C 24.000 300.116,24.123 300.400,24.777 300.400 C 25.405 300.400,25.578 300.726,25.677 302.100 C 25.779 303.513,25.952 303.822,26.700 303.928 C 27.278 304.010,27.600 304.332,27.600 304.828 C 27.600 305.333,27.876 305.600,28.400 305.600 C 29.081 305.600,29.200 305.867,29.200 307.400 C 29.200 308.933,29.319 309.200,30.000 309.200 C 30.517 309.200,30.800 309.467,30.800 309.954 C 30.800 310.369,31.250 311.003,31.800 311.363 C 32.496 311.819,32.800 312.380,32.800 313.209 C 32.800 314.133,32.979 314.400,33.600 314.400 C 34.187 314.400,34.400 314.667,34.400 315.400 C 34.400 316.200,34.600 316.400,35.400 316.400 C 36.304 316.400,36.400 316.558,36.400 318.037 C 36.400 319.338,36.564 319.718,37.200 319.884 C 37.643 320.000,38.000 320.430,38.000 320.847 C 38.000 321.333,38.283 321.600,38.800 321.600 C 39.333 321.600,39.600 321.867,39.600 322.400 C 39.600 322.987,39.867 323.200,40.600 323.200 C 41.519 323.200,41.600 323.347,41.600 325.000 C 41.600 326.512,41.724 326.800,42.372 326.800 C 42.868 326.800,43.190 327.122,43.272 327.700 C 43.354 328.278,43.722 328.646,44.300 328.728 C 44.878 328.810,45.200 329.132,45.200 329.628 C 45.200 330.133,45.476 330.400,46.000 330.400 C 46.533 330.400,46.800 330.667,46.800 331.200 C 46.800 331.733,47.067 332.000,47.600 332.000 C 48.187 332.000,48.400 332.267,48.400 333.000 C 48.400 333.800,48.600 334.000,49.400 334.000 C 50.281 334.000,50.400 334.171,50.400 335.437 C 50.400 336.507,50.592 336.925,51.151 337.071 C 51.564 337.179,52.101 337.703,52.343 338.234 C 52.585 338.765,53.057 339.200,53.391 339.200 C 53.733 339.200,54.000 339.551,54.000 340.000 C 54.000 340.533,54.267 340.800,54.800 340.800 C 55.345 340.800,55.600 341.067,55.600 341.637 C 55.600 342.125,55.919 342.558,56.363 342.674 C 56.783 342.784,57.216 343.217,57.326 343.637 C 57.442 344.081,57.875 344.400,58.363 344.400 C 58.924 344.400,59.200 344.655,59.200 345.173 C 59.200 345.598,59.560 346.060,60.000 346.200 C 60.441 346.340,60.987 346.802,61.214 347.227 C 61.442 347.652,61.871 348.000,62.167 348.000 C 62.464 348.000,62.801 348.360,62.916 348.800 C 63.076 349.413,63.462 349.600,64.563 349.600 C 65.829 349.600,66.000 349.719,66.000 350.600 C 66.000 351.400,66.200 351.600,67.000 351.600 C 67.733 351.600,68.000 351.813,68.000 352.400 C 68.000 352.924,68.267 353.200,68.772 353.200 C 69.268 353.200,69.590 353.522,69.672 354.100 C 69.754 354.678,70.122 355.046,70.700 355.128 C 71.278 355.210,71.600 355.532,71.600 356.028 C 71.600 356.533,71.876 356.800,72.400 356.800 C 72.933 356.800,73.200 357.067,73.200 357.600 C 73.200 358.281,73.467 358.400,75.000 358.400 C 76.653 358.400,76.800 358.481,76.800 359.400 C 76.800 360.133,77.013 360.400,77.600 360.400 C 78.133 360.400,78.400 360.667,78.400 361.200 C 78.400 361.781,78.667 362.000,79.372 362.000 C 80.076 362.000,80.380 362.249,80.472 362.900 C 80.578 363.648,80.887 363.821,82.300 363.923 C 83.674 364.022,84.000 364.195,84.000 364.823 C 84.000 365.324,84.274 365.600,84.772 365.600 C 85.268 365.600,85.590 365.922,85.672 366.500 C 85.770 367.192,86.103 367.429,87.113 367.526 C 87.875 367.600,88.629 367.977,88.909 368.426 C 89.175 368.852,89.709 369.200,90.096 369.200 C 90.533 369.200,90.800 369.503,90.800 370.000 C 90.800 370.681,91.067 370.800,92.600 370.800 C 94.160 370.800,94.400 370.912,94.400 371.637 C 94.400 372.134,94.720 372.559,95.187 372.681 C 95.619 372.794,96.082 373.227,96.214 373.643 C 96.395 374.214,96.835 374.400,97.999 374.400 C 99.297 374.400,99.565 374.544,99.672 375.300 C 99.778 376.048,100.087 376.221,101.500 376.323 C 102.874 376.422,103.200 376.595,103.200 377.223 C 103.200 377.877,103.484 378.000,105.000 378.000 C 106.533 378.000,106.800 378.119,106.800 378.800 C 106.800 379.481,107.067 379.600,108.600 379.600 C 110.253 379.600,110.400 379.681,110.400 380.600 C 110.400 381.500,110.560 381.600,112.000 381.600 C 113.333 381.600,113.600 381.733,113.600 382.400 C 113.600 383.080,113.867 383.200,115.372 383.200 C 116.905 383.200,117.162 383.321,117.272 384.100 C 117.378 384.844,117.688 385.021,119.059 385.121 C 120.307 385.212,120.768 385.435,120.921 386.021 C 121.095 386.685,121.483 386.800,123.563 386.800 C 125.733 386.800,126.000 386.888,126.000 387.600 C 126.000 388.281,126.267 388.400,127.800 388.400 C 129.299 388.400,129.600 388.526,129.600 389.157 C 129.600 390.107,130.351 390.400,132.786 390.400 C 134.370 390.400,134.743 390.540,134.916 391.200 C 135.096 391.890,135.462 392.000,137.563 392.000 C 138.903 392.000,140.000 392.167,140.000 392.371 C 140.000 393.476,141.346 394.000,144.182 394.000 C 146.770 394.000,147.131 394.092,147.316 394.800 C 147.505 395.522,147.862 395.600,150.963 395.600 C 154.133 395.600,154.400 395.662,154.400 396.400 C 154.400 397.141,154.667 397.200,158.000 397.200 C 161.266 397.200,161.600 397.270,161.600 397.957 C 161.600 399.057,162.317 399.200,167.833 399.200 C 170.878 399.200,172.800 399.355,172.800 399.600 C 172.800 399.863,182.200 400.000,200.200 400.000 C 218.200 400.000,227.600 399.863,227.600 399.600 C 227.600 399.355,229.524 399.200,232.571 399.200 C 237.513 399.200,238.800 398.863,238.800 397.571 C 238.800 397.367,240.347 397.200,242.237 397.200 C 245.338 397.200,245.695 397.122,245.884 396.400 C 246.072 395.680,246.430 395.600,249.447 395.600 C 252.510 395.600,252.800 395.532,252.800 394.816 C 252.800 394.110,253.129 394.021,256.100 393.916 C 259.082 393.811,259.438 393.713,259.795 392.900 C 260.140 392.114,260.487 392.000,262.532 392.000 C 264.538 392.000,264.905 391.885,265.084 391.200 C 265.257 390.540,265.630 390.400,267.214 390.400 C 269.649 390.400,270.400 390.107,270.400 389.157 C 270.400 388.526,270.701 388.400,272.200 388.400 C 273.733 388.400,274.000 388.281,274.000 387.600 C 274.000 386.888,274.267 386.800,276.437 386.800 C 278.517 386.800,278.905 386.685,279.079 386.021 C 279.232 385.435,279.693 385.212,280.941 385.121 C 282.312 385.021,282.622 384.844,282.728 384.100 C 282.838 383.321,283.095 383.200,284.628 383.200 C 286.116 383.200,286.400 383.075,286.400 382.423 C 286.400 381.795,286.726 381.622,288.100 381.523 C 289.513 381.421,289.822 381.248,289.928 380.500 C 290.036 379.741,290.302 379.600,291.628 379.600 C 292.933 379.600,293.200 379.464,293.200 378.800 C 293.200 378.119,293.467 378.000,295.000 378.000 C 296.516 378.000,296.800 377.877,296.800 377.223 C 296.800 376.595,297.126 376.422,298.500 376.323 C 299.913 376.221,300.222 376.048,300.328 375.300 C 300.436 374.537,300.701 374.400,302.065 374.400 C 303.338 374.400,303.719 374.233,303.884 373.600 C 304.000 373.157,304.430 372.800,304.847 372.800 C 305.384 372.800,305.600 372.513,305.600 371.800 C 305.600 370.881,305.747 370.800,307.400 370.800 C 308.933 370.800,309.200 370.681,309.200 370.000 C 309.200 369.424,309.467 369.200,310.153 369.200 C 310.770 369.200,311.181 368.918,311.316 368.400 C 311.476 367.787,311.862 367.600,312.963 367.600 C 314.229 367.600,314.400 367.481,314.400 366.600 C 314.400 365.800,314.600 365.600,315.400 365.600 C 316.123 365.600,316.400 365.385,316.400 364.824 C 316.400 364.216,316.725 364.021,317.900 363.924 C 319.003 363.833,319.505 363.562,319.795 362.900 C 320.012 362.405,320.507 362.000,320.895 362.000 C 321.333 362.000,321.600 361.697,321.600 361.200 C 321.600 360.667,321.867 360.400,322.400 360.400 C 322.987 360.400,323.200 360.133,323.200 359.400 C 323.200 358.481,323.347 358.400,325.000 358.400 C 326.533 358.400,326.800 358.281,326.800 357.600 C 326.800 357.055,327.067 356.800,327.637 356.800 C 328.125 356.800,328.558 356.481,328.674 356.037 C 328.784 355.617,329.217 355.184,329.637 355.074 C 330.081 354.958,330.400 354.525,330.400 354.037 C 330.400 353.467,330.655 353.200,331.200 353.200 C 331.733 353.200,332.000 352.933,332.000 352.400 C 332.000 351.813,332.267 351.600,333.000 351.600 C 333.800 351.600,334.000 351.400,334.000 350.600 C 334.000 349.719,334.171 349.600,335.437 349.600 C 336.538 349.600,336.924 349.413,337.084 348.800 C 337.204 348.340,337.630 348.000,338.084 348.000 C 338.534 348.000,338.964 347.661,339.081 347.213 C 339.194 346.781,339.627 346.318,340.043 346.186 C 340.459 346.054,340.800 345.598,340.800 345.173 C 340.800 344.655,341.076 344.400,341.637 344.400 C 342.125 344.400,342.558 344.081,342.674 343.637 C 342.784 343.217,343.217 342.784,343.637 342.674 C 344.081 342.558,344.400 342.125,344.400 341.637 C 344.400 341.076,344.655 340.800,345.173 340.800 C 345.598 340.800,346.054 340.459,346.186 340.043 C 346.318 339.627,346.781 339.194,347.213 339.081 C 347.661 338.964,348.000 338.534,348.000 338.084 C 348.000 337.630,348.340 337.204,348.800 337.084 C 349.413 336.924,349.600 336.538,349.600 335.437 C 349.600 334.171,349.719 334.000,350.600 334.000 C 351.400 334.000,351.600 333.800,351.600 333.000 C 351.600 332.267,351.813 332.000,352.400 332.000 C 352.933 332.000,353.200 331.733,353.200 331.200 C 353.200 330.655,353.467 330.400,354.037 330.400 C 354.525 330.400,354.958 330.081,355.074 329.637 C 355.184 329.217,355.617 328.784,356.037 328.674 C 356.481 328.558,356.800 328.125,356.800 327.637 C 356.800 327.067,357.055 326.800,357.600 326.800 C 358.281 326.800,358.400 326.533,358.400 325.000 C 358.400 323.347,358.481 323.200,359.400 323.200 C 360.133 323.200,360.400 322.987,360.400 322.400 C 360.400 321.867,360.667 321.600,361.200 321.600 C 361.697 321.600,362.000 321.333,362.000 320.895 C 362.000 320.507,362.405 320.012,362.900 319.795 C 363.562 319.505,363.833 319.003,363.924 317.900 C 364.021 316.725,364.216 316.400,364.824 316.400 C 365.385 316.400,365.600 316.123,365.600 315.400 C 365.600 314.600,365.800 314.400,366.600 314.400 C 367.481 314.400,367.600 314.229,367.600 312.963 C 367.600 311.862,367.787 311.476,368.400 311.316 C 368.918 311.181,369.200 310.770,369.200 310.153 C 369.200 309.467,369.424 309.200,370.000 309.200 C 370.681 309.200,370.800 308.933,370.800 307.400 C 370.800 305.747,370.881 305.600,371.800 305.600 C 372.513 305.600,372.800 305.384,372.800 304.847 C 372.800 304.430,373.157 304.000,373.600 303.884 C 374.233 303.719,374.400 303.338,374.400 302.065 C 374.400 300.701,374.537 300.436,375.300 300.328 C 376.048 300.222,376.221 299.913,376.323 298.500 C 376.422 297.126,376.595 296.800,377.223 296.800 C 377.877 296.800,378.000 296.516,378.000 295.000 C 378.000 293.467,378.119 293.200,378.800 293.200 C 379.464 293.200,379.600 292.933,379.600 291.628 C 379.600 290.302,379.741 290.036,380.500 289.928 C 381.248 289.822,381.421 289.513,381.523 288.100 C 381.622 286.726,381.795 286.400,382.423 286.400 C 383.075 286.400,383.200 286.116,383.200 284.628 C 383.200 283.095,383.321 282.838,384.100 282.728 C 384.844 282.622,385.021 282.312,385.121 280.941 C 385.212 279.693,385.435 279.232,386.021 279.079 C 386.685 278.905,386.800 278.517,386.800 276.437 C 386.800 274.267,386.888 274.000,387.600 274.000 C 388.281 274.000,388.400 273.733,388.400 272.200 C 388.400 270.701,388.526 270.400,389.157 270.400 C 390.107 270.400,390.400 269.649,390.400 267.214 C 390.400 265.630,390.540 265.257,391.200 265.084 C 391.885 264.905,392.000 264.538,392.000 262.532 C 392.000 260.487,392.114 260.140,392.900 259.795 C 393.713 259.438,393.811 259.082,393.916 256.100 C 394.021 253.129,394.110 252.800,394.816 252.800 C 395.532 252.800,395.600 252.510,395.600 249.447 C 395.600 246.430,395.680 246.072,396.400 245.884 C 397.122 245.695,397.200 245.338,397.200 242.237 C 397.200 240.347,397.367 238.800,397.571 238.800 C 398.863 238.800,399.200 237.513,399.200 232.571 C 399.200 229.524,399.355 227.600,399.600 227.600 C 399.863 227.600,400.000 218.200,400.000 200.200 C 400.000 182.200,399.863 172.800,399.600 172.800 C 399.355 172.800,399.200 170.878,399.200 167.833 C 399.200 162.317,399.057 161.600,397.957 161.600 C 397.270 161.600,397.200 161.266,397.200 158.000 C 397.200 154.667,397.141 154.400,396.400 154.400 C 395.662 154.400,395.600 154.133,395.600 150.963 C 395.600 147.862,395.522 147.505,394.800 147.316 C 394.092 147.131,394.000 146.770,394.000 144.182 C 394.000 141.346,393.476 140.000,392.371 140.000 C 392.167 140.000,392.000 138.903,392.000 137.563 C 392.000 135.462,391.890 135.096,391.200 134.916 C 390.540 134.743,390.400 134.370,390.400 132.786 C 390.400 130.351,390.107 129.600,389.157 129.600 C 388.526 129.600,388.400 129.299,388.400 127.800 C 388.400 126.267,388.281 126.000,387.600 126.000 C 386.888 126.000,386.800 125.733,386.800 123.563 C 386.800 121.483,386.685 121.095,386.021 120.921 C 385.435 120.768,385.212 120.307,385.121 119.059 C 385.021 117.688,384.844 117.378,384.100 117.272 C 383.321 117.162,383.200 116.905,383.200 115.372 C 383.200 113.867,383.080 113.600,382.400 113.600 C 381.733 113.600,381.600 113.333,381.600 112.000 C 381.600 110.560,381.500 110.400,380.600 110.400 C 379.681 110.400,379.600 110.253,379.600 108.600 C 379.600 107.067,379.481 106.800,378.800 106.800 C 378.119 106.800,378.000 106.533,378.000 105.000 C 378.000 103.484,377.877 103.200,377.223 103.200 C 376.595 103.200,376.422 102.874,376.323 101.500 C 376.221 100.087,376.048 99.778,375.300 99.672 C 374.544 99.565,374.400 99.297,374.400 97.999 C 374.400 96.835,374.214 96.395,373.643 96.214 C 373.227 96.082,372.794 95.619,372.681 95.187 C 372.559 94.720,372.134 94.400,371.637 94.400 C 370.912 94.400,370.800 94.160,370.800 92.600 C 370.800 91.067,370.681 90.800,370.000 90.800 C 369.503 90.800,369.200 90.533,369.200 90.096 C 369.200 89.709,368.852 89.175,368.426 88.909 C 367.977 88.629,367.600 87.875,367.526 87.113 C 367.429 86.103,367.192 85.770,366.500 85.672 C 365.922 85.590,365.600 85.268,365.600 84.772 C 365.600 84.274,365.324 84.000,364.823 84.000 C 364.195 84.000,364.022 83.674,363.923 82.300 C 363.821 80.887,363.648 80.578,362.900 80.472 C 362.249 80.380,362.000 80.076,362.000 79.372 C 362.000 78.667,361.781 78.400,361.200 78.400 C 360.667 78.400,360.400 78.133,360.400 77.600 C 360.400 77.013,360.133 76.800,359.400 76.800 C 358.481 76.800,358.400 76.653,358.400 75.000 C 358.400 73.467,358.281 73.200,357.600 73.200 C 357.067 73.200,356.800 72.933,356.800 72.400 C 356.800 71.876,356.533 71.600,356.028 71.600 C 355.532 71.600,355.210 71.278,355.128 70.700 C 355.046 70.122,354.678 69.754,354.100 69.672 C 353.522 69.590,353.200 69.268,353.200 68.772 C 353.200 68.267,352.924 68.000,352.400 68.000 C 351.813 68.000,351.600 67.733,351.600 67.000 C 351.600 66.200,351.400 66.000,350.600 66.000 C 349.719 66.000,349.600 65.829,349.600 64.563 C 349.600 63.462,349.413 63.076,348.800 62.916 C 348.360 62.801,348.000 62.464,348.000 62.167 C 348.000 61.871,347.652 61.442,347.227 61.214 C 346.802 60.987,346.340 60.441,346.200 60.000 C 346.060 59.560,345.598 59.200,345.173 59.200 C 344.655 59.200,344.400 58.924,344.400 58.363 C 344.400 57.875,344.081 57.442,343.637 57.326 C 343.217 57.216,342.784 56.783,342.674 56.363 C 342.558 55.919,342.125 55.600,341.637 55.600 C 341.067 55.600,340.800 55.345,340.800 54.800 C 340.800 54.267,340.533 54.000,340.000 54.000 C 339.551 54.000,339.200 53.733,339.200 53.391 C 339.200 53.057,338.765 52.585,338.234 52.343 C 337.703 52.101,337.179 51.564,337.071 51.151 C 336.925 50.592,336.507 50.400,335.437 50.400 C 334.171 50.400,334.000 50.281,334.000 49.400 C 334.000 48.600,333.800 48.400,333.000 48.400 C 332.267 48.400,332.000 48.187,332.000 47.600 C 332.000 47.067,331.733 46.800,331.200 46.800 C 330.667 46.800,330.400 46.533,330.400 46.000 C 330.400 45.476,330.133 45.200,329.628 45.200 C 329.132 45.200,328.810 44.878,328.728 44.300 C 328.646 43.722,328.278 43.354,327.700 43.272 C 327.122 43.190,326.800 42.868,326.800 42.372 C 326.800 41.724,326.512 41.600,325.000 41.600 C 323.347 41.600,323.200 41.519,323.200 40.600 C 323.200 39.867,322.987 39.600,322.400 39.600 C 321.867 39.600,321.600 39.333,321.600 38.800 C 321.600 38.283,321.333 38.000,320.847 38.000 C 320.430 38.000,320.000 37.643,319.884 37.200 C 319.718 36.564,319.338 36.400,318.037 36.400 C 316.558 36.400,316.400 36.304,316.400 35.400 C 316.400 34.600,316.200 34.400,315.400 34.400 C 314.667 34.400,314.400 34.187,314.400 33.600 C 314.400 32.979,314.133 32.800,313.209 32.800 C 312.380 32.800,311.819 32.496,311.363 31.800 C 311.003 31.250,310.369 30.800,309.954 30.800 C 309.467 30.800,309.200 30.517,309.200 30.000 C 309.200 29.319,308.933 29.200,307.400 29.200 C 305.867 29.200,305.600 29.081,305.600 28.400 C 305.600 27.876,305.333 27.600,304.828 27.600 C 304.332 27.600,304.010 27.278,303.928 26.700 C 303.822 25.952,303.513 25.779,302.100 25.677 C 300.726 25.578,300.400 25.405,300.400 24.777 C 300.400 24.123,300.116 24.000,298.600 24.000 C 296.947 24.000,296.800 23.919,296.800 23.000 C 296.800 22.081,296.653 22.000,295.000 22.000 C 293.467 22.000,293.200 21.881,293.200 21.200 C 293.200 20.533,292.933 20.400,291.600 20.400 C 290.267 20.400,290.000 20.267,290.000 19.600 C 290.000 18.919,289.733 18.800,288.200 18.800 C 286.547 18.800,286.400 18.719,286.400 17.800 C 286.400 16.881,286.253 16.800,284.600 16.800 C 283.067 16.800,282.800 16.681,282.800 16.000 C 282.800 15.320,282.533 15.200,281.028 15.200 C 279.495 15.200,279.238 15.079,279.128 14.300 C 279.013 13.492,278.745 13.388,276.500 13.281 C 274.328 13.177,274.000 13.059,274.000 12.381 C 274.000 11.722,273.719 11.600,272.200 11.600 C 270.667 11.600,270.400 11.481,270.400 10.800 C 270.400 10.083,270.133 10.000,267.828 10.000 C 265.465 10.000,265.245 9.927,265.128 9.100 C 265.013 8.294,264.744 8.188,262.542 8.082 C 260.495 7.984,260.050 7.833,259.879 7.182 C 259.697 6.483,259.312 6.400,256.265 6.400 C 253.034 6.400,252.849 6.353,252.728 5.500 C 252.609 4.662,252.375 4.592,249.343 4.485 C 246.496 4.384,246.059 4.270,245.880 3.585 C 245.696 2.883,245.316 2.800,242.264 2.800 C 239.277 2.800,238.824 2.707,238.615 2.048 C 238.303 1.066,236.842 0.800,231.750 0.800 C 229.250 0.800,227.600 0.641,227.600 0.400 C 227.600 0.137,218.200 0.000,200.200 0.000 C 182.200 0.000,172.800 0.137,172.800 0.400 M205.646 27.146 C 210.312 29.550,221.417 35.247,232.356 40.848 C 235.742 42.582,238.734 44.000,239.007 44.000 C 239.279 44.000,239.689 44.226,239.918 44.501 C 240.147 44.777,241.564 45.604,243.067 46.339 C 244.570 47.074,246.070 47.831,246.400 48.021 C 247.470 48.637,254.206 52.107,260.200 55.128 C 261.520 55.793,264.490 57.327,266.800 58.535 C 269.110 59.744,274.234 62.378,278.188 64.389 C 282.141 66.400,286.191 68.480,287.188 69.012 C 288.184 69.544,289.450 70.168,290.000 70.400 C 290.550 70.631,293.340 72.063,296.200 73.582 C 299.060 75.100,303.622 77.466,306.337 78.839 C 309.052 80.212,311.797 81.858,312.437 82.498 L 313.600 83.662 313.600 137.831 C 313.600 202.654,314.748 195.533,305.040 190.920 C 301.938 189.445,299.340 188.095,299.267 187.920 C 299.193 187.744,298.959 187.600,298.745 187.600 C 298.416 187.600,291.652 184.393,283.669 180.452 C 277.599 177.455,278.005 180.571,278.055 137.364 C 278.083 113.144,277.960 101.073,277.681 100.551 C 277.453 100.124,274.866 98.551,271.933 97.054 C 269.000 95.557,264.440 93.186,261.800 91.784 C 259.160 90.382,256.235 88.867,255.300 88.417 C 250.998 86.349,249.975 85.836,246.600 84.054 C 244.620 83.008,241.830 81.567,240.400 80.852 C 238.970 80.136,237.350 79.305,236.800 79.005 C 236.250 78.705,234.360 77.726,232.600 76.830 C 230.840 75.934,224.000 72.415,217.400 69.011 C 200.800 60.450,200.700 60.400,199.895 60.400 C 199.276 60.400,195.853 62.017,194.000 63.184 C 193.670 63.392,192.140 64.156,190.600 64.881 C 189.060 65.607,187.710 66.299,187.600 66.419 C 187.490 66.540,183.530 68.585,178.800 70.964 C 170.454 75.162,164.640 78.153,163.000 79.092 C 162.560 79.344,160.940 80.163,159.400 80.912 C 156.126 82.504,141.408 90.089,136.200 92.868 C 134.220 93.925,132.140 94.978,131.577 95.207 C 131.015 95.436,129.575 96.169,128.377 96.835 C 127.180 97.500,125.361 98.424,124.335 98.887 C 121.438 100.195,121.600 97.857,121.600 138.400 C 121.600 178.388,121.499 176.705,123.954 177.803 C 124.749 178.159,127.020 179.299,129.000 180.337 C 130.980 181.375,133.770 182.814,135.200 183.536 C 136.630 184.258,138.250 185.095,138.800 185.396 C 139.350 185.697,141.870 187.001,144.400 188.293 C 146.930 189.586,149.360 190.844,149.800 191.089 C 150.240 191.335,151.410 191.933,152.400 192.419 C 153.390 192.905,156.450 194.474,159.200 195.906 C 161.950 197.338,167.620 200.262,171.800 202.404 C 178.776 205.978,190.011 211.766,196.400 215.077 C 199.466 216.667,200.663 216.628,204.000 214.832 C 209.851 211.683,215.895 208.800,216.643 208.800 C 217.415 208.800,226.312 213.097,227.386 213.988 C 227.648 214.206,229.378 215.174,231.231 216.140 C 233.084 217.107,235.680 218.460,237.000 219.149 C 238.320 219.837,239.718 220.622,240.107 220.893 C 241.015 221.527,242.997 222.571,244.901 223.419 C 249.888 225.640,249.125 227.595,241.847 231.238 C 238.961 232.682,232.100 236.173,226.600 238.996 C 221.100 241.819,213.542 245.675,209.804 247.564 C 206.066 249.454,202.783 251.210,202.508 251.467 C 202.233 251.724,201.460 252.055,200.790 252.202 C 199.573 252.470,198.947 252.245,195.000 250.121 C 194.120 249.648,191.330 248.224,188.800 246.957 C 184.029 244.568,181.033 243.018,180.000 242.406 C 179.670 242.211,178.860 241.796,178.200 241.484 C 176.798 240.822,161.042 232.770,151.800 227.994 C 148.280 226.174,141.620 222.757,137.000 220.399 C 132.380 218.042,126.530 215.026,124.000 213.698 C 119.778 211.482,117.966 210.546,115.800 209.465 C 115.360 209.246,112.660 207.866,109.800 206.399 C 106.940 204.932,101.000 201.896,96.600 199.652 C 91.998 197.306,88.133 195.066,87.500 194.380 L 86.400 193.187 86.400 138.448 C 86.400 76.333,86.040 82.572,89.722 80.819 C 90.645 80.379,91.670 79.847,92.000 79.635 C 92.330 79.424,93.140 78.996,93.800 78.684 C 94.460 78.373,97.880 76.617,101.400 74.783 C 104.920 72.949,109.510 70.581,111.600 69.521 C 113.690 68.461,115.670 67.437,116.000 67.244 C 116.330 67.052,117.950 66.236,119.600 65.430 C 121.250 64.625,122.870 63.805,123.200 63.608 C 123.530 63.412,124.340 62.991,125.000 62.674 C 125.660 62.357,128.540 60.880,131.400 59.393 C 134.260 57.906,137.860 56.075,139.400 55.326 C 140.940 54.576,142.470 53.799,142.800 53.598 C 143.130 53.397,145.615 52.100,148.321 50.716 C 151.028 49.332,154.648 47.480,156.367 46.600 C 158.085 45.720,159.741 44.814,160.046 44.587 C 160.351 44.360,161.950 43.550,163.600 42.787 C 165.250 42.024,166.690 41.288,166.800 41.150 C 166.910 41.013,168.260 40.332,169.800 39.638 C 171.340 38.943,172.870 38.202,173.200 37.991 C 173.530 37.780,175.510 36.739,177.600 35.677 C 184.025 32.414,190.969 28.809,191.600 28.407 C 191.930 28.198,193.403 27.482,194.874 26.817 C 196.344 26.153,197.660 25.427,197.797 25.205 C 198.440 24.164,201.168 24.838,205.646 27.146 M206.000 153.292 C 208.310 154.430,210.290 155.470,210.400 155.603 C 210.510 155.736,211.230 156.090,212.000 156.390 C 212.770 156.689,213.614 157.097,213.875 157.295 C 214.316 157.631,225.602 163.437,235.800 168.575 C 238.220 169.794,240.650 171.052,241.200 171.370 C 241.750 171.688,242.830 172.256,243.600 172.632 C 244.370 173.008,247.340 174.521,250.200 175.993 C 253.060 177.466,256.570 179.252,258.000 179.962 C 259.430 180.672,260.960 181.453,261.400 181.696 C 262.431 182.267,270.515 186.477,272.600 187.529 C 274.634 188.556,276.890 189.710,285.800 194.285 C 289.760 196.318,295.070 199.037,297.600 200.328 C 309.386 206.342,311.868 207.697,312.800 208.623 L 313.800 209.618 313.920 262.909 C 313.986 292.219,313.931 316.962,313.797 317.893 C 313.471 320.154,311.855 321.713,308.034 323.448 C 306.365 324.206,304.730 324.998,304.400 325.207 C 304.070 325.415,302.180 326.405,300.200 327.405 C 298.220 328.405,293.540 330.808,289.800 332.746 C 286.060 334.684,279.220 338.213,274.600 340.589 C 269.980 342.965,262.870 346.622,258.800 348.716 C 254.730 350.809,249.330 353.580,246.800 354.872 C 244.270 356.164,241.930 357.385,241.600 357.585 C 241.270 357.785,240.460 358.202,239.800 358.511 C 239.140 358.820,235.613 360.612,231.962 362.494 C 228.312 364.376,224.937 366.114,224.462 366.358 C 223.988 366.601,223.208 367.001,222.729 367.248 C 222.250 367.494,219.595 368.852,216.829 370.265 C 214.063 371.679,211.530 372.994,211.200 373.187 C 210.870 373.381,209.250 374.213,207.600 375.037 C 205.950 375.861,203.927 376.882,203.104 377.307 C 201.104 378.340,199.150 378.281,196.878 377.121 C 192.451 374.861,174.468 365.618,168.400 362.483 C 164.770 360.608,161.260 358.821,160.600 358.512 C 159.940 358.202,159.130 357.785,158.800 357.585 C 158.470 357.384,156.580 356.407,154.600 355.414 C 152.620 354.421,149.830 352.977,148.400 352.206 C 146.970 351.435,145.588 350.803,145.329 350.802 C 145.069 350.801,144.619 350.574,144.329 350.297 C 144.038 350.020,141.550 348.664,138.800 347.284 C 136.050 345.904,130.650 343.138,126.800 341.138 C 122.950 339.138,116.110 335.617,111.600 333.313 C 107.090 331.009,101.060 327.887,98.200 326.377 C 95.340 324.866,92.730 323.526,92.400 323.400 C 90.218 322.564,88.071 321.134,87.300 320.003 L 86.400 318.682 86.400 265.115 C 86.400 229.368,86.536 211.293,86.809 210.783 C 87.662 209.189,88.689 209.054,91.132 210.216 C 98.793 213.860,105.082 216.904,105.600 217.219 C 105.930 217.420,107.190 218.049,108.400 218.616 C 110.694 219.693,111.683 220.178,116.000 222.344 C 117.430 223.062,119.050 223.867,119.600 224.133 C 122.099 225.341,121.999 223.631,121.999 264.846 L 122.000 302.291 123.500 303.311 C 124.325 303.871,126.966 305.340,129.370 306.574 C 131.773 307.808,133.933 308.963,134.170 309.142 C 134.406 309.320,135.230 309.711,136.000 310.010 C 136.770 310.310,137.490 310.662,137.600 310.793 C 137.710 310.924,140.050 312.158,142.800 313.534 C 145.550 314.911,148.070 316.212,148.400 316.424 C 148.730 316.637,150.350 317.454,152.000 318.241 C 153.650 319.027,156.620 320.519,158.600 321.556 C 160.580 322.593,165.800 325.294,170.200 327.559 C 174.600 329.825,178.470 331.837,178.800 332.032 C 179.130 332.227,180.750 333.037,182.400 333.832 C 184.050 334.628,187.020 336.139,189.000 337.192 C 199.471 342.757,200.268 342.985,203.458 341.321 C 210.994 337.390,226.221 329.537,238.200 323.402 C 242.160 321.374,248.640 318.047,252.600 316.009 C 256.560 313.970,263.490 310.411,268.000 308.099 C 272.510 305.788,276.695 303.548,277.300 303.121 L 278.400 302.346 278.400 264.601 C 278.400 233.037,278.310 226.767,277.848 226.305 C 277.544 226.001,274.659 224.413,271.437 222.776 C 268.214 221.139,263.828 218.894,261.689 217.787 C 259.550 216.679,256.810 215.269,255.600 214.654 C 254.390 214.038,253.115 213.386,252.767 213.205 C 252.418 213.024,249.128 211.327,245.454 209.434 C 241.781 207.541,238.466 205.814,238.088 205.596 C 237.710 205.378,236.950 205.019,236.400 204.797 C 235.850 204.575,234.500 203.856,233.400 203.200 C 232.300 202.544,230.950 201.829,230.400 201.611 C 229.850 201.394,228.860 200.917,228.200 200.551 C 227.540 200.186,223.310 198.000,218.800 195.694 C 214.290 193.389,208.530 190.432,206.000 189.124 C 200.807 186.439,197.891 186.101,196.400 188.011 C 196.290 188.152,193.621 189.557,190.468 191.134 C 183.636 194.551,182.825 194.652,179.138 192.557 C 177.742 191.763,175.430 190.487,174.000 189.722 C 172.570 188.957,170.680 187.923,169.800 187.426 C 168.114 186.472,163.170 183.787,159.800 181.995 C 152.522 178.124,151.947 177.665,152.366 176.070 C 152.645 175.012,156.016 172.400,157.103 172.400 C 157.560 172.400,159.087 171.585,161.415 170.099 C 161.847 169.824,162.650 169.419,163.200 169.199 C 164.399 168.721,168.391 166.721,168.981 166.303 C 169.211 166.140,172.370 164.502,176.000 162.663 C 179.630 160.824,186.020 157.558,190.200 155.406 C 200.755 149.971,199.578 150.129,206.000 153.292 " stroke="none" fill="#fbfbfb" fill-rule="evenodd"></path><path id="path2" d="M197.797 25.205 C 197.660 25.427,196.344 26.153,194.874 26.817 C 193.403 27.482,191.930 28.198,191.600 28.407 C 190.969 28.809,184.025 32.414,177.600 35.677 C 175.510 36.739,173.530 37.780,173.200 37.991 C 172.870 38.202,171.340 38.943,169.800 39.638 C 168.260 40.332,166.910 41.013,166.800 41.150 C 166.690 41.288,165.250 42.024,163.600 42.787 C 161.950 43.550,160.351 44.360,160.046 44.587 C 159.741 44.814,158.085 45.720,156.367 46.600 C 154.648 47.480,151.028 49.332,148.321 50.716 C 145.615 52.100,143.130 53.397,142.800 53.598 C 142.470 53.799,140.940 54.576,139.400 55.326 C 137.860 56.075,134.260 57.906,131.400 59.393 C 128.540 60.880,125.660 62.357,125.000 62.674 C 124.340 62.991,123.530 63.412,123.200 63.608 C 122.870 63.805,121.250 64.625,119.600 65.430 C 117.950 66.236,116.330 67.052,116.000 67.244 C 115.670 67.437,113.690 68.461,111.600 69.521 C 109.510 70.581,104.920 72.949,101.400 74.783 C 97.880 76.617,94.460 78.373,93.800 78.684 C 93.140 78.996,92.330 79.424,92.000 79.635 C 91.670 79.847,90.645 80.379,89.722 80.819 C 86.040 82.572,86.400 76.333,86.400 138.448 L 86.400 193.187 87.500 194.380 C 88.133 195.066,91.998 197.306,96.600 199.652 C 101.000 201.896,106.940 204.932,109.800 206.399 C 112.660 207.866,115.360 209.246,115.800 209.465 C 117.966 210.546,119.778 211.482,124.000 213.698 C 126.530 215.026,132.380 218.042,137.000 220.399 C 141.620 222.757,148.280 226.174,151.800 227.994 C 161.042 232.770,176.798 240.822,178.200 241.484 C 178.860 241.796,179.670 242.211,180.000 242.406 C 181.033 243.018,184.029 244.568,188.800 246.957 C 191.330 248.224,194.120 249.648,195.000 250.121 C 198.947 252.245,199.573 252.470,200.790 252.202 C 201.460 252.055,202.233 251.724,202.508 251.467 C 202.783 251.210,206.066 249.454,209.804 247.564 C 213.542 245.675,221.100 241.819,226.600 238.996 C 232.100 236.173,238.961 232.682,241.847 231.238 C 249.125 227.595,249.888 225.640,244.901 223.419 C 242.997 222.571,241.015 221.527,240.107 220.893 C 239.718 220.622,238.320 219.837,237.000 219.149 C 235.680 218.460,233.084 217.107,231.231 216.140 C 229.378 215.174,227.648 214.206,227.386 213.988 C 226.312 213.097,217.415 208.800,216.643 208.800 C 215.895 208.800,209.851 211.683,204.000 214.832 C 200.663 216.628,199.466 216.667,196.400 215.077 C 190.011 211.766,178.776 205.978,171.800 202.404 C 167.620 200.262,161.950 197.338,159.200 195.906 C 156.450 194.474,153.390 192.905,152.400 192.419 C 151.410 191.933,150.240 191.335,149.800 191.089 C 149.360 190.844,146.930 189.586,144.400 188.293 C 141.870 187.001,139.350 185.697,138.800 185.396 C 138.250 185.095,136.630 184.258,135.200 183.536 C 133.770 182.814,130.980 181.375,129.000 180.337 C 127.020 179.299,124.749 178.159,123.954 177.803 C 121.499 176.705,121.600 178.388,121.600 138.400 C 121.600 97.857,121.438 100.195,124.335 98.887 C 125.361 98.424,127.180 97.500,128.377 96.835 C 129.575 96.169,131.015 95.436,131.577 95.207 C 132.140 94.978,134.220 93.925,136.200 92.868 C 141.408 90.089,156.126 82.504,159.400 80.912 C 160.940 80.163,162.560 79.344,163.000 79.092 C 164.640 78.153,170.454 75.162,178.800 70.964 C 183.530 68.585,187.490 66.540,187.600 66.419 C 187.710 66.299,189.060 65.607,190.600 64.881 C 192.140 64.156,193.670 63.392,194.000 63.184 C 195.853 62.017,199.276 60.400,199.895 60.400 C 200.700 60.400,200.800 60.450,217.400 69.011 C 224.000 72.415,230.840 75.934,232.600 76.830 C 234.360 77.726,236.250 78.705,236.800 79.005 C 237.350 79.305,238.970 80.136,240.400 80.852 C 241.830 81.567,244.620 83.008,246.600 84.054 C 249.975 85.836,250.998 86.349,255.300 88.417 C 256.235 88.867,259.160 90.382,261.800 91.784 C 264.440 93.186,269.000 95.557,271.933 97.054 C 274.866 98.551,277.453 100.124,277.681 100.551 C 277.960 101.073,278.083 113.144,278.055 137.364 C 278.005 180.571,277.599 177.455,283.669 180.452 C 291.652 184.393,298.416 187.600,298.745 187.600 C 298.959 187.600,299.193 187.744,299.267 187.920 C 299.340 188.095,301.938 189.445,305.040 190.920 C 314.748 195.533,313.600 202.654,313.600 137.831 L 313.600 83.662 312.437 82.498 C 311.797 81.858,309.052 80.212,306.337 78.839 C 303.622 77.466,299.060 75.100,296.200 73.582 C 293.340 72.063,290.550 70.631,290.000 70.400 C 289.450 70.168,288.184 69.544,287.188 69.012 C 286.191 68.480,282.141 66.400,278.188 64.389 C 274.234 62.378,269.110 59.744,266.800 58.535 C 264.490 57.327,261.520 55.793,260.200 55.128 C 254.206 52.107,247.470 48.637,246.400 48.021 C 246.070 47.831,244.570 47.074,243.067 46.339 C 241.564 45.604,240.147 44.777,239.918 44.501 C 239.689 44.226,239.279 44.000,239.007 44.000 C 238.734 44.000,235.742 42.582,232.356 40.848 C 221.417 35.247,210.312 29.550,205.646 27.146 C 201.168 24.838,198.440 24.164,197.797 25.205 M210.400 30.704 C 215.350 33.240,224.080 37.697,229.800 40.608 C 235.520 43.519,242.270 46.980,244.800 48.300 C 247.330 49.619,252.910 52.499,257.200 54.700 C 261.490 56.901,267.880 60.185,271.400 61.997 C 280.479 66.670,299.744 76.538,305.314 79.369 C 307.906 80.687,310.606 82.248,311.314 82.839 L 312.600 83.912 312.697 137.056 C 312.800 192.960,312.828 191.991,311.079 192.328 C 310.693 192.402,307.008 190.804,302.889 188.776 C 298.770 186.748,294.680 184.763,293.800 184.364 C 292.920 183.966,291.570 183.288,290.800 182.858 C 290.030 182.428,287.458 181.152,285.085 180.024 C 278.489 176.886,279.203 181.973,279.201 138.122 L 279.200 100.845 278.300 99.846 C 277.302 98.737,276.815 98.468,263.764 91.791 C 258.724 89.212,252.620 86.064,250.200 84.796 C 247.780 83.528,242.020 80.554,237.400 78.188 C 232.780 75.823,227.014 72.854,224.587 71.591 C 222.160 70.329,216.940 67.651,212.987 65.642 C 209.034 63.633,204.938 61.518,203.884 60.943 C 201.323 59.547,199.003 59.328,197.200 60.313 C 196.430 60.733,192.200 62.925,187.800 65.182 C 183.400 67.440,177.076 70.701,173.747 72.428 C 170.417 74.156,163.577 77.666,158.547 80.229 C 153.516 82.792,146.430 86.433,142.800 88.321 C 139.170 90.209,132.960 93.411,129.000 95.437 C 123.733 98.131,121.613 99.426,121.102 100.260 C 119.995 102.069,120.026 174.783,121.135 176.600 C 121.668 177.472,123.334 178.553,127.234 180.556 C 130.185 182.072,134.850 184.480,137.600 185.908 C 143.036 188.731,159.323 197.099,167.000 201.015 C 169.640 202.362,175.400 205.324,179.800 207.597 C 201.279 218.698,199.705 218.173,204.271 215.754 C 217.109 208.949,216.296 209.096,222.474 212.477 C 224.963 213.840,228.260 215.609,229.800 216.409 C 236.673 219.981,245.466 224.922,246.163 225.603 C 247.545 226.953,246.295 227.901,236.753 232.745 C 231.829 235.245,223.750 239.369,218.800 241.909 C 201.804 250.630,200.650 251.200,199.969 251.200 C 199.257 251.200,185.054 244.058,160.600 231.402 C 157.080 229.580,150.240 226.059,145.400 223.578 C 140.560 221.096,134.260 217.864,131.400 216.395 C 128.540 214.925,122.060 211.602,117.000 209.009 C 111.940 206.417,105.190 202.944,102.000 201.292 C 98.810 199.640,94.435 197.412,92.278 196.341 C 86.581 193.511,87.174 200.476,87.296 137.812 L 87.400 84.018 88.400 83.038 C 88.950 82.498,91.560 80.946,94.200 79.587 C 106.835 73.087,115.635 68.567,122.400 65.104 C 138.216 57.008,146.842 52.573,152.800 49.474 C 156.210 47.701,161.970 44.739,165.600 42.893 C 169.230 41.047,176.778 37.166,182.374 34.268 C 195.715 27.360,199.604 25.565,200.600 25.858 C 201.040 25.987,205.450 28.168,210.400 30.704 M198.800 151.173 C 198.250 151.349,194.380 153.254,190.200 155.406 C 186.020 157.558,179.630 160.824,176.000 162.663 C 172.370 164.502,169.211 166.140,168.981 166.303 C 168.391 166.721,164.399 168.721,163.200 169.199 C 162.650 169.419,161.847 169.824,161.415 170.099 C 159.087 171.585,157.560 172.400,157.103 172.400 C 156.016 172.400,152.645 175.012,152.366 176.070 C 151.947 177.665,152.522 178.124,159.800 181.995 C 163.170 183.787,168.114 186.472,169.800 187.426 C 170.680 187.923,172.570 188.957,174.000 189.722 C 175.430 190.487,177.742 191.763,179.138 192.557 C 182.825 194.652,183.636 194.551,190.468 191.134 C 193.621 189.557,196.290 188.152,196.400 188.011 C 197.891 186.101,200.807 186.439,206.000 189.124 C 208.530 190.432,214.290 193.389,218.800 195.694 C 223.310 198.000,227.540 200.186,228.200 200.551 C 228.860 200.917,229.850 201.394,230.400 201.611 C 230.950 201.829,232.300 202.544,233.400 203.200 C 234.500 203.856,235.850 204.575,236.400 204.797 C 236.950 205.019,237.710 205.378,238.088 205.596 C 238.466 205.814,241.781 207.541,245.454 209.434 C 249.128 211.327,252.418 213.024,252.767 213.205 C 253.115 213.386,254.390 214.038,255.600 214.654 C 256.810 215.269,259.550 216.679,261.689 217.787 C 263.828 218.894,268.214 221.139,271.437 222.776 C 274.659 224.413,277.544 226.001,277.848 226.305 C 278.310 226.767,278.400 233.037,278.400 264.601 L 278.400 302.346 277.300 303.121 C 276.695 303.548,272.510 305.788,268.000 308.099 C 263.490 310.411,256.560 313.970,252.600 316.009 C 248.640 318.047,242.160 321.374,238.200 323.402 C 226.221 329.537,210.994 337.390,203.458 341.321 C 200.268 342.985,199.471 342.757,189.000 337.192 C 187.020 336.139,184.050 334.628,182.400 333.832 C 180.750 333.037,179.130 332.227,178.800 332.032 C 178.470 331.837,174.600 329.825,170.200 327.559 C 165.800 325.294,160.580 322.593,158.600 321.556 C 156.620 320.519,153.650 319.027,152.000 318.241 C 150.350 317.454,148.730 316.637,148.400 316.424 C 148.070 316.212,145.550 314.911,142.800 313.534 C 140.050 312.158,137.710 310.924,137.600 310.793 C 137.490 310.662,136.770 310.310,136.000 310.010 C 135.230 309.711,134.406 309.320,134.170 309.142 C 133.933 308.963,131.773 307.808,129.370 306.574 C 126.966 305.340,124.325 303.871,123.500 303.311 L 122.000 302.291 121.999 264.846 C 121.999 223.631,122.099 225.341,119.600 224.133 C 119.050 223.867,117.430 223.062,116.000 222.344 C 111.683 220.178,110.694 219.693,108.400 218.616 C 107.190 218.049,105.930 217.420,105.600 217.219 C 105.082 216.904,98.793 213.860,91.132 210.216 C 88.689 209.054,87.662 209.189,86.809 210.783 C 86.536 211.293,86.400 229.368,86.400 265.115 L 86.400 318.682 87.300 320.003 C 88.071 321.134,90.218 322.564,92.400 323.400 C 92.730 323.526,95.340 324.866,98.200 326.377 C 101.060 327.887,107.090 331.009,111.600 333.313 C 116.110 335.617,122.950 339.138,126.800 341.138 C 130.650 343.138,136.050 345.904,138.800 347.284 C 141.550 348.664,144.038 350.020,144.329 350.297 C 144.619 350.574,145.069 350.801,145.329 350.802 C 145.588 350.803,146.970 351.435,148.400 352.206 C 149.830 352.977,152.620 354.421,154.600 355.414 C 156.580 356.407,158.470 357.384,158.800 357.585 C 159.130 357.785,159.940 358.202,160.600 358.512 C 161.260 358.821,164.770 360.608,168.400 362.483 C 174.468 365.618,192.451 374.861,196.878 377.121 C 199.150 378.281,201.104 378.340,203.104 377.307 C 203.927 376.882,205.950 375.861,207.600 375.037 C 209.250 374.213,210.870 373.381,211.200 373.187 C 211.530 372.994,214.063 371.679,216.829 370.265 C 219.595 368.852,222.250 367.494,222.729 367.248 C 223.208 367.001,223.988 366.601,224.462 366.358 C 224.937 366.114,228.312 364.376,231.962 362.494 C 235.613 360.612,239.140 358.820,239.800 358.511 C 240.460 358.202,241.270 357.785,241.600 357.585 C 241.930 357.385,244.270 356.164,246.800 354.872 C 249.330 353.580,254.730 350.809,258.800 348.716 C 262.870 346.622,269.980 342.965,274.600 340.589 C 279.220 338.213,286.060 334.684,289.800 332.746 C 293.540 330.808,298.220 328.405,300.200 327.405 C 302.180 326.405,304.070 325.415,304.400 325.207 C 304.730 324.998,306.365 324.206,308.034 323.448 C 311.855 321.713,313.471 320.154,313.797 317.893 C 313.931 316.962,313.986 292.219,313.920 262.909 L 313.800 209.618 312.800 208.623 C 311.868 207.697,309.386 206.342,297.600 200.328 C 295.070 199.037,289.760 196.318,285.800 194.285 C 276.890 189.710,274.634 188.556,272.600 187.529 C 270.515 186.477,262.431 182.267,261.400 181.696 C 260.960 181.453,259.430 180.672,258.000 179.962 C 256.570 179.252,253.060 177.466,250.200 175.993 C 247.340 174.521,244.370 173.008,243.600 172.632 C 242.830 172.256,241.750 171.688,241.200 171.370 C 240.650 171.052,238.220 169.794,235.800 168.575 C 225.602 163.437,214.316 157.631,213.875 157.295 C 213.614 157.097,212.770 156.689,212.000 156.390 C 211.230 156.090,210.510 155.736,210.400 155.603 C 209.121 154.053,200.312 150.689,198.800 151.173 M212.728 157.870 C 219.037 161.099,226.090 164.719,228.400 165.914 C 230.710 167.109,233.500 168.522,234.600 169.054 C 235.700 169.585,236.960 170.226,237.400 170.477 C 237.840 170.729,241.710 172.728,246.000 174.919 C 259.541 181.838,282.792 193.778,289.400 197.206 C 292.040 198.576,295.100 200.132,296.200 200.663 C 297.300 201.195,298.830 201.984,299.600 202.417 C 300.370 202.850,303.359 204.395,306.242 205.850 C 313.691 209.610,312.800 201.613,312.800 264.708 L 312.800 318.692 311.952 319.771 C 311.485 320.364,309.550 321.611,307.652 322.542 C 305.753 323.472,300.060 326.365,295.000 328.970 C 274.893 339.322,272.010 340.808,267.000 343.403 C 264.140 344.884,257.570 348.266,252.400 350.917 C 247.230 353.569,240.840 356.849,238.200 358.206 C 199.301 378.209,201.204 377.285,199.479 377.019 C 198.643 376.890,197.273 376.351,196.435 375.822 C 195.598 375.293,193.402 374.132,191.556 373.241 C 189.710 372.351,187.750 371.359,187.200 371.038 C 186.650 370.717,185.120 369.928,183.800 369.286 C 182.480 368.643,178.160 366.448,174.200 364.409 C 156.009 355.042,148.458 351.159,131.800 342.605 C 121.751 337.445,110.346 331.575,102.800 327.679 C 98.730 325.578,94.500 323.431,93.400 322.909 C 86.850 319.797,87.598 327.267,87.613 265.120 C 87.626 210.945,87.639 210.400,88.961 210.400 C 89.922 210.400,119.344 225.009,120.018 225.822 C 120.515 226.420,120.629 232.065,120.800 264.505 L 121.000 302.488 122.317 303.588 C 123.042 304.192,125.112 305.455,126.917 306.393 C 131.363 308.704,142.621 314.500,151.525 319.062 C 155.554 321.127,162.304 324.591,166.525 326.760 C 170.746 328.929,178.070 332.685,182.800 335.106 C 187.530 337.528,192.992 340.363,194.937 341.407 C 200.385 344.330,198.994 344.679,215.200 336.334 C 244.851 321.066,246.441 320.245,247.400 319.704 C 247.840 319.456,249.280 318.727,250.600 318.083 C 252.826 316.998,261.030 312.796,272.600 306.815 C 275.240 305.451,277.895 303.865,278.500 303.292 L 279.600 302.250 279.600 264.905 C 279.600 222.073,279.971 225.967,275.683 223.852 C 274.208 223.125,269.670 220.811,265.600 218.710 C 258.837 215.219,253.180 212.307,238.000 204.501 C 235.030 202.974,229.090 199.917,224.800 197.709 C 220.510 195.500,213.760 192.039,209.800 190.018 C 205.840 187.996,202.429 186.175,202.220 185.971 C 201.632 185.397,198.674 185.533,197.754 186.177 C 196.080 187.350,184.082 193.200,183.354 193.198 C 182.537 193.197,180.319 192.109,174.400 188.806 C 172.310 187.639,169.340 186.019,167.800 185.206 C 163.780 183.081,156.422 179.066,154.903 178.167 C 152.432 176.706,153.003 175.482,157.100 173.453 C 162.430 170.813,188.068 157.632,192.298 155.357 C 200.277 151.065,199.160 150.928,212.728 157.870 " stroke="none" fill="#969594" fill-rule="evenodd"></path><path id="path3" d="M198.800 26.293 C 197.721 26.706,192.332 29.398,185.200 33.087 C 181.350 35.079,173.970 38.863,168.800 41.497 C 159.782 46.091,154.251 48.939,140.500 56.065 C 137.035 57.861,133.660 59.582,133.000 59.891 C 132.340 60.199,131.448 60.644,131.018 60.880 C 130.588 61.116,127.438 62.745,124.018 64.500 C 112.435 70.445,100.624 76.502,94.800 79.484 C 91.610 81.117,88.685 82.821,88.300 83.271 C 87.641 84.041,87.600 87.261,87.600 138.575 L 87.600 193.061 88.500 193.895 C 88.995 194.354,91.020 195.539,93.000 196.527 C 97.412 198.729,105.284 202.762,131.800 216.404 C 134.660 217.875,141.050 221.152,146.000 223.686 C 157.095 229.366,168.801 235.380,176.200 239.200 C 179.280 240.791,185.876 244.169,190.859 246.708 L 199.917 251.323 206.459 248.007 C 210.056 246.184,215.880 243.207,219.400 241.392 C 222.920 239.577,230.120 235.896,235.400 233.211 C 248.647 226.474,248.454 226.754,242.200 223.390 C 240.660 222.562,239.220 221.755,239.000 221.597 C 238.780 221.440,236.260 220.089,233.400 218.596 C 230.540 217.102,228.020 215.742,227.799 215.573 C 226.515 214.590,217.394 210.000,216.725 210.000 C 215.941 210.000,209.962 212.869,204.800 215.723 C 199.766 218.506,201.178 218.975,177.600 206.695 C 174.630 205.149,168.150 201.816,163.200 199.290 C 158.250 196.764,151.770 193.437,148.800 191.898 C 145.830 190.359,139.710 187.212,135.200 184.906 C 123.705 179.027,121.354 177.656,120.843 176.534 C 120.229 175.188,120.215 101.643,120.828 100.297 C 121.372 99.104,121.066 99.285,131.872 93.768 C 136.892 91.204,141.900 88.609,143.000 88.001 C 144.100 87.393,149.500 84.602,155.000 81.798 C 160.500 78.995,167.160 75.576,169.800 74.201 C 173.652 72.196,188.229 64.710,196.999 60.234 C 199.010 59.208,200.948 59.218,203.000 60.263 C 203.880 60.711,207.480 62.567,211.000 64.386 C 219.039 68.542,229.707 74.035,240.800 79.729 C 251.906 85.431,255.937 87.508,266.400 92.920 C 271.130 95.367,275.695 97.719,276.545 98.148 C 279.831 99.807,279.597 96.703,279.599 138.646 C 279.600 182.635,278.364 176.571,288.319 181.431 C 292.213 183.332,298.640 186.476,302.600 188.417 C 310.240 192.161,310.606 192.298,311.700 191.820 C 312.362 191.531,312.400 188.575,312.400 137.827 L 312.400 84.139 311.500 83.344 C 309.872 81.904,308.563 81.203,286.200 69.801 C 280.480 66.884,272.920 63.009,269.400 61.189 C 265.880 59.369,259.940 56.315,256.200 54.402 C 252.460 52.488,245.980 49.158,241.800 47.000 C 237.620 44.842,230.420 41.145,225.800 38.783 C 221.180 36.422,213.668 32.580,209.107 30.245 C 201.144 26.169,200.135 25.782,198.800 26.293 M202.006 27.544 C 202.773 27.954,206.730 29.999,210.800 32.089 C 214.870 34.180,218.740 36.174,219.400 36.521 C 220.060 36.869,221.590 37.650,222.800 38.259 C 224.010 38.867,228.420 41.120,232.600 43.265 C 236.780 45.410,241.730 47.947,243.600 48.902 C 245.470 49.857,250.780 52.592,255.400 54.980 C 263.612 59.224,268.866 61.918,286.914 71.140 C 298.262 76.939,301.654 78.701,302.400 79.182 C 302.730 79.395,304.076 80.059,305.391 80.657 C 308.956 82.278,311.115 83.703,311.365 84.600 C 311.724 85.881,311.622 190.146,311.262 190.714 C 310.867 191.336,310.589 191.244,305.200 188.696 C 302.890 187.604,300.640 186.551,300.200 186.356 C 299.760 186.161,299.130 185.826,298.800 185.612 C 298.470 185.397,296.760 184.528,295.000 183.679 C 293.240 182.831,291.440 181.930,291.000 181.676 C 290.560 181.422,288.304 180.331,285.987 179.253 C 283.670 178.174,281.510 176.974,281.187 176.585 C 280.683 175.978,280.572 170.498,280.400 137.948 L 280.200 100.018 279.200 99.046 C 278.650 98.512,276.416 97.141,274.235 96.000 C 272.054 94.859,269.984 93.762,269.635 93.563 C 269.286 93.363,268.550 93.016,268.000 92.790 C 267.450 92.565,265.290 91.470,263.200 90.356 C 261.110 89.243,257.330 87.255,254.800 85.938 C 252.270 84.621,249.750 83.286,249.200 82.972 C 248.650 82.658,246.940 81.801,245.400 81.067 C 243.860 80.334,240.350 78.563,237.600 77.131 C 225.324 70.739,218.831 67.393,211.001 63.421 C 206.381 61.078,202.430 58.990,202.221 58.781 C 201.731 58.291,198.279 58.284,197.780 58.771 C 197.443 59.101,185.330 65.348,177.800 69.076 C 176.260 69.838,174.674 70.636,174.276 70.849 C 173.878 71.062,172.438 71.837,171.076 72.570 C 169.714 73.304,164.460 75.992,159.400 78.544 C 154.340 81.095,150.020 83.326,149.800 83.501 C 149.580 83.677,147.870 84.579,146.000 85.506 C 142.048 87.467,137.760 89.669,135.200 91.053 C 134.210 91.589,131.780 92.835,129.800 93.823 C 122.842 97.294,120.610 98.628,120.108 99.612 C 119.713 100.389,119.626 108.770,119.703 138.905 L 119.800 177.211 121.000 178.191 C 121.660 178.730,122.920 179.532,123.800 179.974 C 124.680 180.415,125.850 181.037,126.400 181.356 C 126.950 181.674,128.570 182.521,130.000 183.238 C 132.479 184.481,141.349 189.038,150.400 193.719 C 154.584 195.883,163.755 200.594,178.200 208.000 C 182.380 210.143,188.637 213.360,192.104 215.148 C 199.751 219.093,200.039 219.124,205.018 216.545 C 216.729 210.481,216.569 210.531,219.415 212.041 C 221.446 213.118,226.021 215.567,230.600 218.028 C 232.580 219.092,235.266 220.518,236.569 221.196 C 240.102 223.033,245.200 226.116,245.200 226.414 C 245.200 227.176,238.938 230.713,230.600 234.660 C 229.500 235.180,228.150 235.860,227.600 236.171 C 227.050 236.482,224.620 237.735,222.200 238.956 C 219.780 240.177,217.170 241.528,216.400 241.958 C 215.630 242.388,214.370 243.044,213.600 243.415 C 211.707 244.329,203.246 248.708,202.000 249.418 C 200.770 250.119,199.286 250.148,198.118 249.494 C 197.097 248.922,187.515 244.002,175.200 237.727 C 170.470 235.317,166.240 233.133,165.800 232.873 C 165.360 232.613,164.550 232.217,164.000 231.994 C 163.450 231.770,161.470 230.764,159.600 229.757 C 157.730 228.751,154.040 226.846,151.400 225.524 C 148.760 224.203,146.240 222.926,145.800 222.688 C 145.360 222.449,143.020 221.246,140.600 220.013 C 138.180 218.781,135.750 217.484,135.200 217.132 C 134.650 216.779,133.030 215.983,131.600 215.361 C 130.170 214.740,128.906 214.100,128.790 213.938 C 128.577 213.640,107.798 202.961,101.600 199.965 C 99.730 199.061,97.966 198.130,97.681 197.896 C 97.395 197.661,95.775 196.824,94.080 196.035 C 92.386 195.246,90.414 194.183,89.700 193.673 L 88.400 192.746 88.406 138.673 C 88.409 108.933,88.562 84.363,88.746 84.074 C 88.930 83.784,89.602 83.266,90.240 82.922 C 92.774 81.556,113.892 70.635,122.126 66.433 C 125.825 64.545,129.245 62.781,129.726 62.513 C 130.207 62.245,131.770 61.453,133.200 60.752 C 134.630 60.051,137.375 58.651,139.300 57.639 C 141.224 56.628,145.184 54.582,148.100 53.094 C 151.015 51.605,157.990 48.031,163.600 45.152 C 169.210 42.272,175.060 39.291,176.600 38.527 C 178.140 37.763,179.723 36.965,180.118 36.754 C 180.513 36.544,181.863 35.819,183.118 35.145 C 185.933 33.634,187.368 32.892,191.200 30.969 C 192.850 30.141,195.370 28.867,196.800 28.139 C 199.836 26.593,200.156 26.557,202.006 27.544 M197.588 153.019 C 196.384 153.563,194.500 154.471,193.400 155.037 C 192.300 155.602,187.620 158.007,183.000 160.380 C 178.380 162.753,173.160 165.463,171.400 166.402 C 169.640 167.341,167.120 168.628,165.800 169.263 C 164.480 169.897,163.040 170.623,162.600 170.876 C 162.160 171.129,160.068 172.193,157.952 173.241 C 153.584 175.403,152.774 176.567,154.742 177.856 C 155.783 178.538,163.396 182.695,167.800 184.987 C 169.120 185.673,170.650 186.520,171.200 186.867 C 172.248 187.529,177.325 190.282,180.400 191.854 C 183.474 193.426,183.649 193.369,197.400 186.240 C 199.720 185.038,200.550 184.968,202.200 185.837 C 202.860 186.184,207.180 188.412,211.800 190.788 C 216.420 193.164,222.180 196.144,224.600 197.411 C 227.020 198.678,229.540 199.970,230.200 200.283 C 230.860 200.596,231.760 201.055,232.200 201.304 C 232.640 201.553,235.790 203.183,239.200 204.926 C 242.610 206.670,248.370 209.625,252.000 211.493 C 255.630 213.362,262.830 217.051,268.000 219.692 C 273.170 222.333,277.895 224.956,278.500 225.522 L 279.600 226.550 279.600 264.654 L 279.600 302.759 278.284 303.763 C 276.846 304.860,274.780 305.971,262.200 312.411 C 257.580 314.776,250.920 318.193,247.400 320.002 C 243.880 321.812,237.400 325.141,233.000 327.399 C 228.600 329.657,221.220 333.448,216.600 335.823 C 198.322 345.219,200.891 344.691,193.093 340.651 C 189.962 339.029,183.980 335.944,179.800 333.795 C 175.620 331.647,168.330 327.900,163.600 325.468 C 158.870 323.037,153.200 320.132,151.000 319.013 C 148.800 317.894,143.130 314.984,138.400 312.545 C 120.652 303.395,121.353 303.838,120.789 301.400 C 120.577 300.483,120.415 284.162,120.410 263.170 L 120.400 226.539 119.500 225.703 C 119.005 225.243,114.820 223.040,110.200 220.808 C 105.580 218.576,101.530 216.612,101.200 216.443 C 100.870 216.274,99.520 215.578,98.200 214.895 C 96.880 214.212,94.540 213.096,93.000 212.414 C 91.460 211.731,89.900 211.007,89.534 210.805 C 89.030 210.526,88.714 210.671,88.234 211.404 C 87.410 212.662,87.249 317.192,88.069 318.991 C 88.671 320.313,88.806 320.391,103.000 327.612 C 109.600 330.969,117.610 335.069,120.800 336.723 C 127.701 340.301,131.299 342.151,144.800 349.064 C 154.254 353.904,160.232 356.978,175.800 365.006 C 179.100 366.708,182.700 368.528,183.800 369.052 C 184.900 369.575,186.340 370.296,187.000 370.655 C 200.240 377.849,199.653 377.753,207.056 373.958 C 210.105 372.395,215.930 369.404,220.000 367.312 C 226.907 363.762,230.715 361.810,252.600 350.605 C 257.220 348.239,263.340 345.089,266.200 343.605 C 269.060 342.121,275.000 339.059,279.400 336.801 C 283.800 334.543,290.190 331.252,293.600 329.488 C 297.010 327.723,302.480 324.919,305.755 323.257 C 310.885 320.652,311.786 320.053,312.255 318.930 C 312.706 317.852,312.800 308.440,312.800 264.600 C 312.800 205.720,312.979 209.503,310.130 208.088 C 309.289 207.669,305.450 205.699,301.600 203.709 C 285.664 195.471,269.655 187.252,255.400 179.990 C 250.780 177.636,244.390 174.357,241.200 172.703 C 217.266 160.295,201.942 152.548,200.788 152.271 C 200.133 152.114,199.002 152.379,197.588 153.019 M203.112 154.114 C 203.711 154.423,207.170 156.201,210.800 158.067 C 214.430 159.932,217.760 161.658,218.200 161.903 C 218.640 162.148,219.540 162.602,220.200 162.912 C 221.596 163.567,235.441 170.672,243.000 174.612 C 245.860 176.103,251.260 178.854,255.000 180.726 C 258.740 182.597,262.070 184.331,262.400 184.578 C 262.730 184.825,264.350 185.651,266.000 186.414 C 267.650 187.176,269.180 187.938,269.400 188.108 C 269.620 188.277,271.960 189.513,274.600 190.854 C 298.925 203.215,309.354 208.623,310.746 209.600 L 311.601 210.200 311.617 264.225 C 311.625 293.938,311.514 318.560,311.368 318.939 C 311.222 319.319,307.930 321.229,304.052 323.184 C 295.800 327.345,290.106 330.268,280.200 335.430 C 276.240 337.493,271.380 339.991,269.400 340.980 C 267.420 341.969,264.990 343.217,264.000 343.755 C 263.010 344.292,261.660 344.989,261.000 345.305 C 260.340 345.620,255.930 347.866,251.200 350.296 C 246.470 352.726,239.450 356.330,235.600 358.306 C 231.750 360.282,225.540 363.477,221.800 365.407 C 218.060 367.336,211.712 370.588,207.693 372.632 L 200.387 376.350 198.293 375.506 C 197.142 375.042,195.930 374.450,195.600 374.190 C 195.270 373.930,193.650 373.062,192.000 372.261 C 190.350 371.461,188.730 370.627,188.400 370.408 C 188.070 370.189,186.360 369.314,184.600 368.464 C 182.840 367.614,178.250 365.294,174.400 363.310 C 170.550 361.325,163.710 357.812,159.200 355.503 C 154.690 353.194,149.110 350.317,146.800 349.111 C 144.490 347.904,141.610 346.425,140.400 345.823 C 139.190 345.222,137.750 344.494,137.200 344.206 C 135.341 343.234,125.054 337.938,115.000 332.778 C 109.500 329.954,102.930 326.556,100.400 325.225 C 97.870 323.894,95.350 322.613,94.800 322.379 C 91.745 321.075,89.501 319.793,88.984 319.056 C 88.388 318.205,88.045 213.792,88.633 212.258 C 88.913 211.529,89.210 211.614,93.556 213.673 C 95.401 214.547,97.291 215.428,97.756 215.630 C 98.220 215.832,98.870 216.166,99.200 216.370 C 99.530 216.575,102.500 218.040,105.800 219.627 C 112.677 222.933,118.908 226.030,119.200 226.289 C 119.310 226.387,119.490 243.614,119.600 264.572 C 119.771 297.145,119.885 302.779,120.383 303.379 C 121.219 304.386,124.727 306.564,127.884 308.035 C 129.378 308.731,130.690 309.420,130.800 309.565 C 130.910 309.710,133.250 310.960,136.000 312.342 C 138.750 313.724,141.270 315.008,141.600 315.196 C 141.930 315.383,143.370 316.129,144.800 316.853 C 146.230 317.577,150.583 319.796,154.473 321.784 C 158.363 323.773,165.293 327.313,169.873 329.652 C 174.453 331.990,181.350 335.544,185.200 337.549 C 197.116 343.756,198.843 344.557,200.217 344.518 C 201.425 344.484,207.528 341.918,207.993 341.248 C 208.107 341.084,211.800 339.145,216.200 336.939 C 220.600 334.732,227.440 331.257,231.400 329.217 C 235.360 327.176,242.435 323.543,247.121 321.143 C 251.808 318.744,255.948 316.605,256.321 316.390 C 256.695 316.176,257.450 315.816,258.000 315.590 C 258.550 315.365,261.340 313.930,264.200 312.402 C 267.060 310.874,271.020 308.816,273.000 307.829 C 278.111 305.280,279.703 304.059,280.310 302.221 C 280.712 301.004,280.797 292.815,280.710 263.620 C 280.583 220.926,281.085 225.358,276.094 222.864 C 271.906 220.772,259.207 214.241,253.800 211.398 C 251.380 210.126,246.070 207.390,242.000 205.318 C 237.930 203.246,231.360 199.882,227.400 197.842 C 223.440 195.803,219.030 193.549,217.600 192.835 C 216.170 192.120,214.640 191.333,214.200 191.085 C 213.760 190.838,211.330 189.578,208.800 188.287 C 206.270 186.996,203.570 185.593,202.800 185.170 C 200.827 184.087,199.270 184.209,196.556 185.660 C 184.096 192.321,183.490 192.521,180.560 190.948 C 179.482 190.370,177.070 189.087,175.200 188.098 C 173.330 187.109,171.350 185.990,170.800 185.612 C 170.250 185.233,168.630 184.340,167.200 183.626 C 164.586 182.322,164.009 182.014,158.275 178.867 C 155.085 177.116,154.396 175.998,156.000 175.174 C 156.330 175.004,157.590 174.374,158.800 173.774 C 164.726 170.835,177.980 164.034,178.833 163.494 C 179.365 163.158,180.250 162.753,180.800 162.594 C 181.350 162.435,182.070 162.077,182.400 161.798 C 183.061 161.239,196.623 154.291,198.331 153.636 C 199.613 153.145,201.621 153.346,203.112 154.114 " stroke="none" fill="#7c7874" fill-rule="evenodd"></path><path id="path4" d="M183.100 33.829 C 181.605 34.640,181.696 34.978,183.200 34.200 C 183.860 33.859,184.400 33.494,184.400 33.390 C 184.400 33.132,184.357 33.147,183.100 33.829 M105.900 73.429 C 104.405 74.240,104.496 74.578,106.000 73.800 C 106.660 73.459,107.200 73.094,107.200 72.990 C 107.200 72.732,107.157 72.747,105.900 73.429 M171.100 73.429 C 169.605 74.240,169.696 74.578,171.200 73.800 C 171.860 73.459,172.400 73.094,172.400 72.990 C 172.400 72.732,172.357 72.747,171.100 73.429 M87.394 138.400 C 87.394 167.990,87.442 180.095,87.500 165.300 C 87.558 150.505,87.558 126.295,87.500 111.500 C 87.442 96.705,87.394 108.810,87.394 138.400 M312.594 137.800 C 312.594 166.840,312.642 178.661,312.700 164.069 C 312.758 149.477,312.758 125.717,312.700 111.269 C 312.642 96.821,312.594 108.760,312.594 137.800 M279.392 138.400 C 279.392 158.970,279.440 167.385,279.500 157.100 C 279.559 146.815,279.559 129.985,279.500 119.700 C 279.440 109.415,279.392 117.830,279.392 138.400 M120.592 263.800 C 120.592 284.040,120.640 292.379,120.700 282.330 C 120.759 272.282,120.759 255.722,120.700 245.530 C 120.640 235.339,120.592 243.560,120.592 263.800 " stroke="none" fill="#847c7c" fill-rule="evenodd"></path></g></svg>
