<?xml version="1.0" standalone="no"?>
<!DOCTYPE svg PUBLIC "-//W3C//DTD SVG 20010904//EN"
 "http://www.w3.org/TR/2001/REC-SVG-20010904/DTD/svg10.dtd">
<svg version="1.0" xmlns="http://www.w3.org/2000/svg"
 width="256.000000pt" height="256.000000pt" viewBox="0 0 256.000000 256.000000"
 preserveAspectRatio="xMidYMid meet">

<g transform="translate(0.000000,256.000000) scale(0.100000,-0.100000)"
fill="#000000" stroke="none">
<path d="M1230 2372 c-19 -10 -178 -92 -353 -181 l-317 -162 2 -355 3 -355
150 -78 c83 -42 243 -125 358 -184 l207 -107 150 78 c82 42 150 79 150 82 0 3
-17 14 -37 25 -21 11 -64 34 -96 52 l-58 32 -55 -27 -56 -27 -241 124 c-133
68 -248 128 -254 134 -10 7 -13 70 -13 252 l0 243 33 20 c17 11 132 70 254
133 l222 113 173 -88 c95 -49 210 -109 256 -133 l82 -45 0 -247 0 -246 95 -48
c52 -26 100 -47 105 -47 6 0 10 126 10 348 l0 349 -87 45 c-370 191 -622 318
-634 318 -8 0 -30 -8 -49 -18z"/>
<path d="M1128 1512 c-82 -42 -148 -79 -148 -82 0 -3 43 -27 95 -55 103 -54
87 -53 186 -12 23 9 52 -3 277 -119 l252 -128 0 -247 0 -247 -92 -50 c-51 -27
-166 -86 -255 -131 l-162 -83 -138 70 c-76 39 -190 97 -253 130 l-115 61 -3
248 -2 249 -95 47 c-53 26 -100 47 -105 47 -6 0 -10 -126 -10 -348 l0 -348
232 -120 c128 -65 290 -148 360 -184 l128 -65 153 77 c83 43 245 126 360 184
l207 107 -2 354 -3 354 -60 33 c-84 45 -653 336 -657 336 -1 0 -69 -35 -150
-78z"/>
</g>
</svg>
